<mxfile host="app.diagrams.net" modified="2022-08-26T22:31:22.318Z" agent="5.0 (Macintosh; Intel Mac OS X 10_15_7) AppleWebKit/537.36 (KHTML, like Gecko) Chrome/104.0.0.0 Safari/537.36" etag="4qHrkpVnck403Tk_l1TJ" version="20.2.5" type="github">
  <diagram id="C5RBs43oDa-KdzZeNtuy" name="Page-1">
    <mxGraphModel dx="2377" dy="1335" grid="1" gridSize="10" guides="1" tooltips="1" connect="1" arrows="1" fold="1" page="1" pageScale="1" pageWidth="827" pageHeight="1169" math="0" shadow="0">
      <root>
        <mxCell id="WIyWlLk6GJQsqaUBKTNV-0" />
        <mxCell id="WIyWlLk6GJQsqaUBKTNV-1" parent="WIyWlLk6GJQsqaUBKTNV-0" />
        <mxCell id="urKNFZyR7NJDDOvEf_uz-53" value="" style="group" parent="WIyWlLk6GJQsqaUBKTNV-1" vertex="1" connectable="0">
          <mxGeometry x="530" y="500" width="440" height="660" as="geometry" />
        </mxCell>
        <mxCell id="urKNFZyR7NJDDOvEf_uz-40" value="" style="rounded=1;whiteSpace=wrap;html=1;fillColor=default;" parent="urKNFZyR7NJDDOvEf_uz-53" vertex="1">
          <mxGeometry x="10" width="430" height="660" as="geometry" />
        </mxCell>
        <mxCell id="urKNFZyR7NJDDOvEf_uz-21" value="Layer" style="swimlane;fontStyle=0;childLayout=stackLayout;horizontal=1;startSize=30;horizontalStack=0;resizeParent=1;resizeParentMax=0;resizeLast=0;collapsible=1;marginBottom=0;fontSize=16;fillColor=#dae8fc;strokeColor=#6c8ebf;fontFamily=Courier New;" parent="urKNFZyR7NJDDOvEf_uz-53" vertex="1">
          <mxGeometry x="111.29999999999995" y="80" width="250" height="194.44444444444446" as="geometry" />
        </mxCell>
        <mxCell id="urKNFZyR7NJDDOvEf_uz-24" value="metadata: dict" style="text;strokeColor=none;fillColor=none;align=left;verticalAlign=middle;spacingLeft=4;spacingRight=4;overflow=hidden;points=[[0,0.5],[1,0.5]];portConstraint=eastwest;rotatable=0;fontSize=12;fontFamily=Courier New;" parent="urKNFZyR7NJDDOvEf_uz-21" vertex="1">
          <mxGeometry y="30" width="250" height="27.40740740740741" as="geometry" />
        </mxCell>
        <mxCell id="urKNFZyR7NJDDOvEf_uz-25" value="scale: Array[(D,), float]" style="text;strokeColor=none;fillColor=none;align=left;verticalAlign=middle;spacingLeft=4;spacingRight=4;overflow=hidden;points=[[0,0.5],[1,0.5]];portConstraint=eastwest;rotatable=0;fontSize=12;fontFamily=Courier New;" parent="urKNFZyR7NJDDOvEf_uz-21" vertex="1">
          <mxGeometry y="57.407407407407405" width="250" height="27.40740740740741" as="geometry" />
        </mxCell>
        <mxCell id="urKNFZyR7NJDDOvEf_uz-26" value="translate: Array[(D,), float]" style="text;strokeColor=none;fillColor=none;align=left;verticalAlign=middle;spacingLeft=4;spacingRight=4;overflow=hidden;points=[[0,0.5],[1,0.5]];portConstraint=eastwest;rotatable=0;fontSize=12;fontFamily=Courier New;" parent="urKNFZyR7NJDDOvEf_uz-21" vertex="1">
          <mxGeometry y="84.81481481481481" width="250" height="27.40740740740741" as="geometry" />
        </mxCell>
        <mxCell id="urKNFZyR7NJDDOvEf_uz-27" value="rotate: Array[(D, D), float]" style="text;strokeColor=none;fillColor=none;align=left;verticalAlign=middle;spacingLeft=4;spacingRight=4;overflow=hidden;points=[[0,0.5],[1,0.5]];portConstraint=eastwest;rotatable=0;fontSize=12;fontFamily=Courier New;" parent="urKNFZyR7NJDDOvEf_uz-21" vertex="1">
          <mxGeometry y="112.22222222222221" width="250" height="27.40740740740741" as="geometry" />
        </mxCell>
        <mxCell id="urKNFZyR7NJDDOvEf_uz-28" value="shear: Array[(D, D), float]" style="text;strokeColor=none;fillColor=none;align=left;verticalAlign=middle;spacingLeft=4;spacingRight=4;overflow=hidden;points=[[0,0.5],[1,0.5]];portConstraint=eastwest;rotatable=0;fontSize=12;fontFamily=Courier New;" parent="urKNFZyR7NJDDOvEf_uz-21" vertex="1">
          <mxGeometry y="139.62962962962962" width="250" height="27.40740740740741" as="geometry" />
        </mxCell>
        <mxCell id="urKNFZyR7NJDDOvEf_uz-29" value="affine: Affine" style="text;strokeColor=none;fillColor=none;align=left;verticalAlign=middle;spacingLeft=4;spacingRight=4;overflow=hidden;points=[[0,0.5],[1,0.5]];portConstraint=eastwest;rotatable=0;fontSize=12;fontFamily=Courier New;" parent="urKNFZyR7NJDDOvEf_uz-21" vertex="1">
          <mxGeometry y="167.03703703703704" width="250" height="27.40740740740741" as="geometry" />
        </mxCell>
        <mxCell id="urKNFZyR7NJDDOvEf_uz-43" style="edgeStyle=orthogonalEdgeStyle;curved=1;rounded=0;orthogonalLoop=1;jettySize=auto;html=1;exitX=0.5;exitY=0;exitDx=0;exitDy=0;entryX=0;entryY=0.08;entryDx=0;entryDy=0;entryPerimeter=0;" parent="urKNFZyR7NJDDOvEf_uz-53" source="urKNFZyR7NJDDOvEf_uz-31" target="urKNFZyR7NJDDOvEf_uz-21" edge="1">
          <mxGeometry relative="1" as="geometry">
            <Array as="points">
              <mxPoint x="236" y="341" />
              <mxPoint x="60" y="341" />
              <mxPoint x="60" y="96" />
            </Array>
          </mxGeometry>
        </mxCell>
        <mxCell id="urKNFZyR7NJDDOvEf_uz-31" value="Image" style="swimlane;fontStyle=0;childLayout=stackLayout;horizontal=1;startSize=30;horizontalStack=0;resizeParent=1;resizeParentMax=0;resizeLast=0;collapsible=1;marginBottom=0;fontSize=16;fillColor=#dae8fc;strokeColor=#6c8ebf;fontFamily=Courier New;" parent="urKNFZyR7NJDDOvEf_uz-53" vertex="1">
          <mxGeometry x="111.29999999999995" y="380" width="250" height="84.81481481481481" as="geometry" />
        </mxCell>
        <mxCell id="urKNFZyR7NJDDOvEf_uz-32" value="rgb: bool" style="text;strokeColor=none;fillColor=none;align=left;verticalAlign=middle;spacingLeft=4;spacingRight=4;overflow=hidden;points=[[0,0.5],[1,0.5]];portConstraint=eastwest;rotatable=0;fontSize=12;fontFamily=Courier New;" parent="urKNFZyR7NJDDOvEf_uz-31" vertex="1">
          <mxGeometry y="30" width="250" height="27.40740740740741" as="geometry" />
        </mxCell>
        <mxCell id="urKNFZyR7NJDDOvEf_uz-33" value="level_shapes: Array[(L, D), int]" style="text;strokeColor=none;fillColor=none;align=left;verticalAlign=middle;spacingLeft=4;spacingRight=4;overflow=hidden;points=[[0,0.5],[1,0.5]];portConstraint=eastwest;rotatable=0;fontSize=12;fontFamily=Courier New;" parent="urKNFZyR7NJDDOvEf_uz-31" vertex="1">
          <mxGeometry y="57.407407407407405" width="250" height="27.40740740740741" as="geometry" />
        </mxCell>
        <mxCell id="urKNFZyR7NJDDOvEf_uz-41" value="&lt;font style=&quot;font-size: 20px;&quot;&gt;napari.layers&lt;/font&gt;" style="text;html=1;strokeColor=none;fillColor=none;align=center;verticalAlign=middle;whiteSpace=wrap;rounded=0;" parent="urKNFZyR7NJDDOvEf_uz-53" vertex="1">
          <mxGeometry y="20" width="210.2" height="27.41" as="geometry" />
        </mxCell>
        <mxCell id="urKNFZyR7NJDDOvEf_uz-49" style="edgeStyle=orthogonalEdgeStyle;curved=1;rounded=0;orthogonalLoop=1;jettySize=auto;html=1;exitX=0.5;exitY=0;exitDx=0;exitDy=0;entryX=0;entryY=0.25;entryDx=0;entryDy=0;" parent="urKNFZyR7NJDDOvEf_uz-53" source="urKNFZyR7NJDDOvEf_uz-44" target="urKNFZyR7NJDDOvEf_uz-31" edge="1">
          <mxGeometry relative="1" as="geometry">
            <mxPoint x="-72.41428571428582" y="390" as="targetPoint" />
            <Array as="points">
              <mxPoint x="236" y="540" />
              <mxPoint x="70" y="540" />
              <mxPoint x="70" y="401" />
            </Array>
          </mxGeometry>
        </mxCell>
        <mxCell id="urKNFZyR7NJDDOvEf_uz-44" value="Labels" style="swimlane;fontStyle=0;childLayout=stackLayout;horizontal=1;startSize=30;horizontalStack=0;resizeParent=1;resizeParentMax=0;resizeLast=0;collapsible=1;marginBottom=0;fontSize=16;fillColor=#dae8fc;strokeColor=#6c8ebf;fontFamily=Courier New;" parent="urKNFZyR7NJDDOvEf_uz-53" vertex="1">
          <mxGeometry x="111.29999999999995" y="560" width="250" height="57.407407407407405" as="geometry" />
        </mxCell>
        <mxCell id="urKNFZyR7NJDDOvEf_uz-45" value="features: table-like" style="text;strokeColor=none;fillColor=none;align=left;verticalAlign=middle;spacingLeft=4;spacingRight=4;overflow=hidden;points=[[0,0.5],[1,0.5]];portConstraint=eastwest;rotatable=0;fontSize=12;fontFamily=Courier New;" parent="urKNFZyR7NJDDOvEf_uz-44" vertex="1">
          <mxGeometry y="30" width="250" height="27.40740740740741" as="geometry" />
        </mxCell>
        <mxCell id="fk5IQ1vkFYfIm3PTCyGs-18" value="" style="group" vertex="1" connectable="0" parent="WIyWlLk6GJQsqaUBKTNV-1">
          <mxGeometry x="1040" y="500" width="380" height="220" as="geometry" />
        </mxCell>
        <mxCell id="fk5IQ1vkFYfIm3PTCyGs-1" value="" style="rounded=1;whiteSpace=wrap;html=1;fillColor=default;" vertex="1" parent="fk5IQ1vkFYfIm3PTCyGs-18">
          <mxGeometry width="380" height="220" as="geometry" />
        </mxCell>
        <mxCell id="fk5IQ1vkFYfIm3PTCyGs-2" value="Affine" style="swimlane;fontStyle=0;childLayout=stackLayout;horizontal=1;startSize=30;horizontalStack=0;resizeParent=1;resizeParentMax=0;resizeLast=0;collapsible=1;marginBottom=0;fontSize=16;fillColor=#dae8fc;strokeColor=#6c8ebf;fontFamily=Courier New;" vertex="1" parent="fk5IQ1vkFYfIm3PTCyGs-18">
          <mxGeometry x="50.65000000000009" y="90" width="278.7" height="84.81481481481481" as="geometry" />
        </mxCell>
        <mxCell id="fk5IQ1vkFYfIm3PTCyGs-3" value="linear_matrix: Array[(D, D), float]" style="text;strokeColor=none;fillColor=none;align=left;verticalAlign=middle;spacingLeft=4;spacingRight=4;overflow=hidden;points=[[0,0.5],[1,0.5]];portConstraint=eastwest;rotatable=0;fontSize=12;fontFamily=Courier New;" vertex="1" parent="fk5IQ1vkFYfIm3PTCyGs-2">
          <mxGeometry y="30" width="278.7" height="27.40740740740741" as="geometry" />
        </mxCell>
        <mxCell id="fk5IQ1vkFYfIm3PTCyGs-4" value="translate: Array[(D,), float]" style="text;strokeColor=none;fillColor=none;align=left;verticalAlign=middle;spacingLeft=4;spacingRight=4;overflow=hidden;points=[[0,0.5],[1,0.5]];portConstraint=eastwest;rotatable=0;fontSize=12;fontFamily=Courier New;" vertex="1" parent="fk5IQ1vkFYfIm3PTCyGs-2">
          <mxGeometry y="57.407407407407405" width="278.7" height="27.40740740740741" as="geometry" />
        </mxCell>
        <mxCell id="fk5IQ1vkFYfIm3PTCyGs-14" value="&lt;font style=&quot;font-size: 20px;&quot;&gt;napari.utils.transforms&lt;/font&gt;" style="text;html=1;strokeColor=none;fillColor=none;align=center;verticalAlign=middle;whiteSpace=wrap;rounded=0;" vertex="1" parent="fk5IQ1vkFYfIm3PTCyGs-18">
          <mxGeometry x="30" y="20" width="210.2" height="27.41" as="geometry" />
        </mxCell>
        <mxCell id="fk5IQ1vkFYfIm3PTCyGs-19" style="edgeStyle=orthogonalEdgeStyle;rounded=0;orthogonalLoop=1;jettySize=auto;html=1;exitX=1;exitY=0.5;exitDx=0;exitDy=0;entryX=0;entryY=0.25;entryDx=0;entryDy=0;curved=1;" edge="1" parent="WIyWlLk6GJQsqaUBKTNV-1" source="urKNFZyR7NJDDOvEf_uz-29" target="fk5IQ1vkFYfIm3PTCyGs-2">
          <mxGeometry relative="1" as="geometry" />
        </mxCell>
        <mxCell id="fk5IQ1vkFYfIm3PTCyGs-29" style="edgeStyle=orthogonalEdgeStyle;curved=1;rounded=0;orthogonalLoop=1;jettySize=auto;html=1;exitX=0;exitY=0.5;exitDx=0;exitDy=0;entryX=0.5;entryY=0;entryDx=0;entryDy=0;" edge="1" parent="WIyWlLk6GJQsqaUBKTNV-1" source="urKNFZyR7NJDDOvEf_uz-7" target="urKNFZyR7NJDDOvEf_uz-21">
          <mxGeometry relative="1" as="geometry">
            <Array as="points">
              <mxPoint x="480" y="183" />
              <mxPoint x="480" y="480" />
              <mxPoint x="766" y="480" />
            </Array>
          </mxGeometry>
        </mxCell>
        <mxCell id="urKNFZyR7NJDDOvEf_uz-5" value="" style="rounded=1;whiteSpace=wrap;html=1;fillColor=default;" parent="WIyWlLk6GJQsqaUBKTNV-1" vertex="1">
          <mxGeometry x="494.3374584968306" y="60" width="935.6625415031695" height="370" as="geometry" />
        </mxCell>
        <mxCell id="urKNFZyR7NJDDOvEf_uz-6" value="ViewerModel" style="swimlane;fontStyle=0;childLayout=stackLayout;horizontal=1;startSize=30;horizontalStack=0;resizeParent=1;resizeParentMax=0;resizeLast=0;collapsible=1;marginBottom=0;fontSize=16;fillColor=#dae8fc;strokeColor=#6c8ebf;fontFamily=Courier New;" parent="WIyWlLk6GJQsqaUBKTNV-1" vertex="1">
          <mxGeometry x="780.0032961062481" y="139.48000000000002" width="282.0751584666466" height="139.62962962962962" as="geometry" />
        </mxCell>
        <mxCell id="urKNFZyR7NJDDOvEf_uz-7" value="layers: list[Layer]" style="text;strokeColor=none;fillColor=none;align=left;verticalAlign=middle;spacingLeft=4;spacingRight=4;overflow=hidden;points=[[0,0.5],[1,0.5]];portConstraint=eastwest;rotatable=0;fontSize=12;fontFamily=Courier New;" parent="urKNFZyR7NJDDOvEf_uz-6" vertex="1">
          <mxGeometry y="30" width="282.0751584666466" height="27.4074074074074" as="geometry" />
        </mxCell>
        <mxCell id="urKNFZyR7NJDDOvEf_uz-50" value="dims: Dims" style="text;strokeColor=none;fillColor=none;align=left;verticalAlign=middle;spacingLeft=4;spacingRight=4;overflow=hidden;points=[[0,0.5],[1,0.5]];portConstraint=eastwest;rotatable=0;fontSize=12;fontFamily=Courier New;" parent="urKNFZyR7NJDDOvEf_uz-6" vertex="1">
          <mxGeometry y="57.407407407407405" width="282.0751584666466" height="27.4074074074074" as="geometry" />
        </mxCell>
        <mxCell id="urKNFZyR7NJDDOvEf_uz-8" value="scale_bar: ScaleBar" style="text;strokeColor=none;fillColor=none;align=left;verticalAlign=middle;spacingLeft=4;spacingRight=4;overflow=hidden;points=[[0,0.5],[1,0.5]];portConstraint=eastwest;rotatable=0;fontSize=12;fontFamily=Courier New;" parent="urKNFZyR7NJDDOvEf_uz-6" vertex="1">
          <mxGeometry y="84.81481481481481" width="282.0751584666466" height="27.4074074074074" as="geometry" />
        </mxCell>
        <mxCell id="fk5IQ1vkFYfIm3PTCyGs-22" value="axes: Axes" style="text;strokeColor=none;fillColor=none;align=left;verticalAlign=middle;spacingLeft=4;spacingRight=4;overflow=hidden;points=[[0,0.5],[1,0.5]];portConstraint=eastwest;rotatable=0;fontSize=12;fontFamily=Courier New;" vertex="1" parent="urKNFZyR7NJDDOvEf_uz-6">
          <mxGeometry y="112.22222222222221" width="282.0751584666466" height="27.4074074074074" as="geometry" />
        </mxCell>
        <mxCell id="urKNFZyR7NJDDOvEf_uz-9" value="Dims" style="swimlane;fontStyle=0;childLayout=stackLayout;horizontal=1;startSize=30;horizontalStack=0;resizeParent=1;resizeParentMax=0;resizeLast=0;collapsible=1;marginBottom=0;fontSize=16;fillColor=#dae8fc;strokeColor=#6c8ebf;fontFamily=Courier New;" parent="WIyWlLk6GJQsqaUBKTNV-1" vertex="1">
          <mxGeometry x="555.42" y="300" width="224.58" height="84.81481481481481" as="geometry" />
        </mxCell>
        <mxCell id="urKNFZyR7NJDDOvEf_uz-10" value="ndim: int" style="text;strokeColor=none;fillColor=none;align=left;verticalAlign=middle;spacingLeft=4;spacingRight=4;overflow=hidden;points=[[0,0.5],[1,0.5]];portConstraint=eastwest;rotatable=0;fontSize=12;fontFamily=Courier New;" parent="urKNFZyR7NJDDOvEf_uz-9" vertex="1">
          <mxGeometry y="30" width="224.58" height="27.40740740740741" as="geometry" />
        </mxCell>
        <mxCell id="urKNFZyR7NJDDOvEf_uz-11" value="axis_labels: tuple[str, ...]" style="text;strokeColor=none;fillColor=none;align=left;verticalAlign=middle;spacingLeft=4;spacingRight=4;overflow=hidden;points=[[0,0.5],[1,0.5]];portConstraint=eastwest;rotatable=0;fontSize=12;fontFamily=Courier New;" parent="urKNFZyR7NJDDOvEf_uz-9" vertex="1">
          <mxGeometry y="57.407407407407405" width="224.58" height="27.40740740740741" as="geometry" />
        </mxCell>
        <mxCell id="urKNFZyR7NJDDOvEf_uz-13" value="&lt;font style=&quot;font-size: 20px;&quot;&gt;napari.components&lt;/font&gt;" style="text;html=1;strokeColor=none;fillColor=none;align=center;verticalAlign=middle;whiteSpace=wrap;rounded=0;" parent="WIyWlLk6GJQsqaUBKTNV-1" vertex="1">
          <mxGeometry x="450" y="80" width="336.9" height="27.41" as="geometry" />
        </mxCell>
        <mxCell id="urKNFZyR7NJDDOvEf_uz-14" style="edgeStyle=orthogonalEdgeStyle;curved=1;rounded=0;orthogonalLoop=1;jettySize=auto;html=1;exitX=0;exitY=0.5;exitDx=0;exitDy=0;entryX=0.5;entryY=0;entryDx=0;entryDy=0;" parent="WIyWlLk6GJQsqaUBKTNV-1" source="urKNFZyR7NJDDOvEf_uz-50" target="urKNFZyR7NJDDOvEf_uz-9" edge="1">
          <mxGeometry relative="1" as="geometry" />
        </mxCell>
        <mxCell id="urKNFZyR7NJDDOvEf_uz-17" value="ScaleBar" style="swimlane;fontStyle=0;childLayout=stackLayout;horizontal=1;startSize=30;horizontalStack=0;resizeParent=1;resizeParentMax=0;resizeLast=0;collapsible=1;marginBottom=0;fontSize=16;fillColor=#dae8fc;strokeColor=#6c8ebf;fontFamily=Courier New;" parent="WIyWlLk6GJQsqaUBKTNV-1" vertex="1">
          <mxGeometry x="825.3199999999999" y="300" width="191.45" height="84.81481481481481" as="geometry" />
        </mxCell>
        <mxCell id="urKNFZyR7NJDDOvEf_uz-18" value="visible: bool" style="text;strokeColor=none;fillColor=none;align=left;verticalAlign=middle;spacingLeft=4;spacingRight=4;overflow=hidden;points=[[0,0.5],[1,0.5]];portConstraint=eastwest;rotatable=0;fontSize=12;fontFamily=Courier New;" parent="urKNFZyR7NJDDOvEf_uz-17" vertex="1">
          <mxGeometry y="30" width="191.45" height="27.40740740740741" as="geometry" />
        </mxCell>
        <mxCell id="fk5IQ1vkFYfIm3PTCyGs-21" value="unit: tuple[str, ...]" style="text;strokeColor=none;fillColor=none;align=left;verticalAlign=middle;spacingLeft=4;spacingRight=4;overflow=hidden;points=[[0,0.5],[1,0.5]];portConstraint=eastwest;rotatable=0;fontSize=12;fontFamily=Courier New;" vertex="1" parent="urKNFZyR7NJDDOvEf_uz-17">
          <mxGeometry y="57.407407407407405" width="191.45" height="27.40740740740741" as="geometry" />
        </mxCell>
        <mxCell id="urKNFZyR7NJDDOvEf_uz-20" style="edgeStyle=orthogonalEdgeStyle;rounded=0;orthogonalLoop=1;jettySize=auto;html=1;exitX=0;exitY=0.5;exitDx=0;exitDy=0;entryX=0.5;entryY=0;entryDx=0;entryDy=0;curved=1;" parent="WIyWlLk6GJQsqaUBKTNV-1" source="urKNFZyR7NJDDOvEf_uz-8" target="urKNFZyR7NJDDOvEf_uz-17" edge="1">
          <mxGeometry relative="1" as="geometry">
            <Array as="points">
              <mxPoint x="750" y="238" />
              <mxPoint x="750" y="290" />
              <mxPoint x="921" y="290" />
            </Array>
          </mxGeometry>
        </mxCell>
        <mxCell id="fk5IQ1vkFYfIm3PTCyGs-23" value="Axes" style="swimlane;fontStyle=0;childLayout=stackLayout;horizontal=1;startSize=30;horizontalStack=0;resizeParent=1;resizeParentMax=0;resizeLast=0;collapsible=1;marginBottom=0;fontSize=16;fillColor=#dae8fc;strokeColor=#6c8ebf;fontFamily=Courier New;" vertex="1" parent="WIyWlLk6GJQsqaUBKTNV-1">
          <mxGeometry x="1062.08" y="300" width="191.45" height="84.81481481481481" as="geometry" />
        </mxCell>
        <mxCell id="fk5IQ1vkFYfIm3PTCyGs-24" value="visible: bool" style="text;strokeColor=none;fillColor=none;align=left;verticalAlign=middle;spacingLeft=4;spacingRight=4;overflow=hidden;points=[[0,0.5],[1,0.5]];portConstraint=eastwest;rotatable=0;fontSize=12;fontFamily=Courier New;" vertex="1" parent="fk5IQ1vkFYfIm3PTCyGs-23">
          <mxGeometry y="30" width="191.45" height="27.40740740740741" as="geometry" />
        </mxCell>
        <mxCell id="fk5IQ1vkFYfIm3PTCyGs-25" value="labels: bool" style="text;strokeColor=none;fillColor=none;align=left;verticalAlign=middle;spacingLeft=4;spacingRight=4;overflow=hidden;points=[[0,0.5],[1,0.5]];portConstraint=eastwest;rotatable=0;fontSize=12;fontFamily=Courier New;" vertex="1" parent="fk5IQ1vkFYfIm3PTCyGs-23">
          <mxGeometry y="57.407407407407405" width="191.45" height="27.40740740740741" as="geometry" />
        </mxCell>
        <mxCell id="fk5IQ1vkFYfIm3PTCyGs-26" style="edgeStyle=orthogonalEdgeStyle;curved=1;rounded=0;orthogonalLoop=1;jettySize=auto;html=1;exitX=1;exitY=0.5;exitDx=0;exitDy=0;entryX=0.5;entryY=0;entryDx=0;entryDy=0;" edge="1" parent="WIyWlLk6GJQsqaUBKTNV-1" source="fk5IQ1vkFYfIm3PTCyGs-22" target="fk5IQ1vkFYfIm3PTCyGs-23">
          <mxGeometry relative="1" as="geometry" />
        </mxCell>
      </root>
    </mxGraphModel>
  </diagram>
</mxfile>
